<svg width="68" height="70" viewBox="0 0 68 70" fill="none" xmlns="http://www.w3.org/2000/svg">
<path d="M34 69.7091C52.7305 69.7091 67.9062 54.2948 67.9062 35.27C67.9062 16.2452 52.7305 0.830952 34 0.830952C15.2695 0.830952 0.09375 16.2452 0.09375 35.27C0.09375 54.2948 15.2695 69.7091 34 69.7091ZM18.1406 29.1599H34V19.3142C34 17.8283 35.7773 17.0784 36.8027 18.1338L52.4297 34.0896C53.0723 34.7423 53.0723 35.7838 52.4297 36.4365L36.8027 52.4062C35.7637 53.4616 34 52.7117 34 51.2259V41.3802H18.1406C17.2383 41.3802 16.5 40.6303 16.5 39.7138V30.8263C16.5 29.9097 17.2383 29.1599 18.1406 29.1599Z" fill="black"/>
</svg>
