<svg width="70" height="72" viewBox="0 0 70 72" fill="none" xmlns="http://www.w3.org/2000/svg">
<path d="M35 1.84665C16.2695 1.84665 1.09375 17.2609 1.09375 36.2857C1.09375 55.3105 16.2695 70.7248 35 70.7248C53.7305 70.7248 68.9062 55.3105 68.9062 36.2857C68.9062 17.2609 53.7305 1.84665 35 1.84665ZM50.8594 42.3959H35V52.2415C35 53.7274 33.2227 54.4773 32.1973 53.4219L16.5703 37.4661C15.9277 36.8134 15.9277 35.7719 16.5703 35.1192L32.1973 19.1495C33.2363 18.0941 35 18.844 35 20.3299V30.1756H50.8594C51.7617 30.1756 52.5 30.9254 52.5 31.842V40.7295C52.5 41.646 51.7617 42.3959 50.8594 42.3959Z" fill="black"/>
</svg>
